<svg width="50" height="50" viewBox="0 0 50 50" fill="none" xmlns="http://www.w3.org/2000/svg">
<path d="M5.2083 21.7393C2.3375 21.7393 0 24.1784 0 27.174V44.5654C0 47.561 2.3375 50.0001 5.2083 50.0001H11.4583C12.6312 50.0001 13.7104 49.5871 14.5833 48.9001V21.7393H5.2083Z" fill="#868895"/>
<path d="M49.9998 29.8913C49.9998 28.5848 49.504 27.3674 48.6436 26.4695C49.6165 25.3587 50.1123 23.8695 49.9769 22.3196C49.7331 19.5565 47.3477 17.3913 44.5436 17.3913H31.6748C32.3123 15.3717 33.3331 11.6695 33.3331 8.69563C33.3331 3.98041 29.4936 0 27.0831 0C24.9186 0 23.3727 1.27174 23.3061 1.32391C23.0603 1.53047 22.9165 1.84351 22.9165 2.17388V9.5456L16.9165 23.1087L16.6665 23.2413V46.5413C18.3623 47.3761 20.5081 47.8261 21.8748 47.8261H40.9978C43.2665 47.8261 45.252 46.2304 45.7186 44.0283C45.9581 42.8957 45.8186 41.7544 45.3415 40.7631C46.8811 39.9544 47.9165 38.3 47.9165 36.4131C47.9165 35.6435 47.7478 34.9065 47.427 34.2392C48.9665 33.4305 49.9998 31.7761 49.9998 29.8913Z" fill="#868895"/>
</svg>
